<mxfile host="app.diagrams.net" agent="Mozilla/5.0 (Windows NT 10.0; Win64; x64) AppleWebKit/537.36 (KHTML, like Gecko) Chrome/137.0.0.0 Safari/537.36" version="27.1.3">
  <diagram name="web-app" id="7FVg5mMptfWyBlxpJ3zD">
    <mxGraphModel dx="1712" dy="1722" grid="1" gridSize="10" guides="1" tooltips="1" connect="1" arrows="1" fold="1" page="1" pageScale="1" pageWidth="827" pageHeight="1169" math="0" shadow="0">
      <root>
        <mxCell id="0" />
        <mxCell id="1" value="new background" style="locked=1;" parent="0" />
        <mxCell id="7gcp-KZ2jk-KzHVOEvSe-1" value="AWS Prd Account" style="points=[[0,0],[0.25,0],[0.5,0],[0.75,0],[1,0],[1,0.25],[1,0.5],[1,0.75],[1,1],[0.75,1],[0.5,1],[0.25,1],[0,1],[0,0.75],[0,0.5],[0,0.25]];outlineConnect=0;gradientColor=none;html=1;whiteSpace=wrap;fontSize=12;fontStyle=0;container=1;pointerEvents=0;collapsible=0;recursiveResize=0;shape=mxgraph.aws4.group;grIcon=mxgraph.aws4.group_account;strokeColor=#CD2264;fillColor=none;verticalAlign=top;align=left;spacingLeft=30;fontColor=#CD2264;dashed=0;" vertex="1" parent="1">
          <mxGeometry x="-330" y="100" width="730" height="550" as="geometry" />
        </mxCell>
        <mxCell id="7gcp-KZ2jk-KzHVOEvSe-18" value="new vpc" style="locked=1;" parent="0" />
        <mxCell id="7gcp-KZ2jk-KzHVOEvSe-19" value="VPC" style="points=[[0,0],[0.25,0],[0.5,0],[0.75,0],[1,0],[1,0.25],[1,0.5],[1,0.75],[1,1],[0.75,1],[0.5,1],[0.25,1],[0,1],[0,0.75],[0,0.5],[0,0.25]];outlineConnect=0;gradientColor=none;html=1;whiteSpace=wrap;fontSize=12;fontStyle=0;container=1;pointerEvents=0;collapsible=0;recursiveResize=0;shape=mxgraph.aws4.group;grIcon=mxgraph.aws4.group_vpc2;strokeColor=#8C4FFF;fillColor=none;verticalAlign=top;align=left;spacingLeft=30;fontColor=#AAB7B8;dashed=0;" vertex="1" parent="7gcp-KZ2jk-KzHVOEvSe-18">
          <mxGeometry x="-30" y="230" width="450" height="480" as="geometry" />
        </mxCell>
        <mxCell id="7gcp-KZ2jk-KzHVOEvSe-22" value="Public subnet" style="points=[[0,0],[0.25,0],[0.5,0],[0.75,0],[1,0],[1,0.25],[1,0.5],[1,0.75],[1,1],[0.75,1],[0.5,1],[0.25,1],[0,1],[0,0.75],[0,0.5],[0,0.25]];outlineConnect=0;gradientColor=none;html=1;whiteSpace=wrap;fontSize=12;fontStyle=0;container=1;pointerEvents=0;collapsible=0;recursiveResize=0;shape=mxgraph.aws4.group;grIcon=mxgraph.aws4.group_security_group;grStroke=0;strokeColor=#7AA116;fillColor=#F2F6E8;verticalAlign=top;align=left;spacingLeft=30;fontColor=#248814;dashed=0;" vertex="1" parent="7gcp-KZ2jk-KzHVOEvSe-19">
          <mxGeometry x="20" y="40" width="130" height="130" as="geometry" />
        </mxCell>
        <mxCell id="7gcp-KZ2jk-KzHVOEvSe-23" value="Public subnet" style="points=[[0,0],[0.25,0],[0.5,0],[0.75,0],[1,0],[1,0.25],[1,0.5],[1,0.75],[1,1],[0.75,1],[0.5,1],[0.25,1],[0,1],[0,0.75],[0,0.5],[0,0.25]];outlineConnect=0;gradientColor=none;html=1;whiteSpace=wrap;fontSize=12;fontStyle=0;container=1;pointerEvents=0;collapsible=0;recursiveResize=0;shape=mxgraph.aws4.group;grIcon=mxgraph.aws4.group_security_group;grStroke=0;strokeColor=#7AA116;fillColor=#F2F6E8;verticalAlign=top;align=left;spacingLeft=30;fontColor=#248814;dashed=0;" vertex="1" parent="7gcp-KZ2jk-KzHVOEvSe-19">
          <mxGeometry x="160" y="40" width="130" height="130" as="geometry" />
        </mxCell>
        <mxCell id="7gcp-KZ2jk-KzHVOEvSe-24" value="Public subnet" style="points=[[0,0],[0.25,0],[0.5,0],[0.75,0],[1,0],[1,0.25],[1,0.5],[1,0.75],[1,1],[0.75,1],[0.5,1],[0.25,1],[0,1],[0,0.75],[0,0.5],[0,0.25]];outlineConnect=0;gradientColor=none;html=1;whiteSpace=wrap;fontSize=12;fontStyle=0;container=1;pointerEvents=0;collapsible=0;recursiveResize=0;shape=mxgraph.aws4.group;grIcon=mxgraph.aws4.group_security_group;grStroke=0;strokeColor=#7AA116;fillColor=#F2F6E8;verticalAlign=top;align=left;spacingLeft=30;fontColor=#248814;dashed=0;" vertex="1" parent="7gcp-KZ2jk-KzHVOEvSe-19">
          <mxGeometry x="300" y="40" width="130" height="130" as="geometry" />
        </mxCell>
        <mxCell id="7gcp-KZ2jk-KzHVOEvSe-25" value="Private subnet&lt;br&gt;(with&amp;nbsp; NAT route)" style="points=[[0,0],[0.25,0],[0.5,0],[0.75,0],[1,0],[1,0.25],[1,0.5],[1,0.75],[1,1],[0.75,1],[0.5,1],[0.25,1],[0,1],[0,0.75],[0,0.5],[0,0.25]];outlineConnect=0;gradientColor=none;html=1;whiteSpace=wrap;fontSize=12;fontStyle=0;container=1;pointerEvents=0;collapsible=0;recursiveResize=0;shape=mxgraph.aws4.group;grIcon=mxgraph.aws4.group_security_group;grStroke=0;strokeColor=#00A4A6;fillColor=#E6F6F7;verticalAlign=top;align=left;spacingLeft=30;fontColor=#147EBA;dashed=0;" vertex="1" parent="7gcp-KZ2jk-KzHVOEvSe-19">
          <mxGeometry x="20" y="180" width="130" height="130" as="geometry" />
        </mxCell>
        <mxCell id="7gcp-KZ2jk-KzHVOEvSe-26" value="Private subnet&lt;br&gt;(with&amp;nbsp; NAT route)" style="points=[[0,0],[0.25,0],[0.5,0],[0.75,0],[1,0],[1,0.25],[1,0.5],[1,0.75],[1,1],[0.75,1],[0.5,1],[0.25,1],[0,1],[0,0.75],[0,0.5],[0,0.25]];outlineConnect=0;gradientColor=none;html=1;whiteSpace=wrap;fontSize=12;fontStyle=0;container=1;pointerEvents=0;collapsible=0;recursiveResize=0;shape=mxgraph.aws4.group;grIcon=mxgraph.aws4.group_security_group;grStroke=0;strokeColor=#00A4A6;fillColor=#E6F6F7;verticalAlign=top;align=left;spacingLeft=30;fontColor=#147EBA;dashed=0;" vertex="1" parent="7gcp-KZ2jk-KzHVOEvSe-19">
          <mxGeometry x="160" y="180" width="130" height="130" as="geometry" />
        </mxCell>
        <mxCell id="7gcp-KZ2jk-KzHVOEvSe-27" value="Private subnet&lt;br&gt;(with NAT route)" style="points=[[0,0],[0.25,0],[0.5,0],[0.75,0],[1,0],[1,0.25],[1,0.5],[1,0.75],[1,1],[0.75,1],[0.5,1],[0.25,1],[0,1],[0,0.75],[0,0.5],[0,0.25]];outlineConnect=0;gradientColor=none;html=1;whiteSpace=wrap;fontSize=12;fontStyle=0;container=1;pointerEvents=0;collapsible=0;recursiveResize=0;shape=mxgraph.aws4.group;grIcon=mxgraph.aws4.group_security_group;grStroke=0;strokeColor=#00A4A6;fillColor=#E6F6F7;verticalAlign=top;align=left;spacingLeft=30;fontColor=#147EBA;dashed=0;" vertex="1" parent="7gcp-KZ2jk-KzHVOEvSe-19">
          <mxGeometry x="300" y="180" width="130" height="130" as="geometry" />
        </mxCell>
        <mxCell id="7gcp-KZ2jk-KzHVOEvSe-28" value="Private subnet&lt;br&gt;(no NAT route)" style="points=[[0,0],[0.25,0],[0.5,0],[0.75,0],[1,0],[1,0.25],[1,0.5],[1,0.75],[1,1],[0.75,1],[0.5,1],[0.25,1],[0,1],[0,0.75],[0,0.5],[0,0.25]];outlineConnect=0;gradientColor=none;html=1;whiteSpace=wrap;fontSize=12;fontStyle=0;container=1;pointerEvents=0;collapsible=0;recursiveResize=0;shape=mxgraph.aws4.group;grIcon=mxgraph.aws4.group_security_group;grStroke=0;strokeColor=#00A4A6;fillColor=#E6F6F7;verticalAlign=top;align=left;spacingLeft=30;fontColor=#147EBA;dashed=0;" vertex="1" parent="7gcp-KZ2jk-KzHVOEvSe-19">
          <mxGeometry x="20" y="320" width="130" height="130" as="geometry" />
        </mxCell>
        <mxCell id="7gcp-KZ2jk-KzHVOEvSe-29" value="Private subnet&lt;br&gt;(no NAT route)" style="points=[[0,0],[0.25,0],[0.5,0],[0.75,0],[1,0],[1,0.25],[1,0.5],[1,0.75],[1,1],[0.75,1],[0.5,1],[0.25,1],[0,1],[0,0.75],[0,0.5],[0,0.25]];outlineConnect=0;gradientColor=none;html=1;whiteSpace=wrap;fontSize=12;fontStyle=0;container=1;pointerEvents=0;collapsible=0;recursiveResize=0;shape=mxgraph.aws4.group;grIcon=mxgraph.aws4.group_security_group;grStroke=0;strokeColor=#00A4A6;fillColor=#E6F6F7;verticalAlign=top;align=left;spacingLeft=30;fontColor=#147EBA;dashed=0;" vertex="1" parent="7gcp-KZ2jk-KzHVOEvSe-19">
          <mxGeometry x="160" y="320" width="130" height="130" as="geometry" />
        </mxCell>
        <mxCell id="7gcp-KZ2jk-KzHVOEvSe-30" value="Private subnet&lt;br&gt;(no NAT route)" style="points=[[0,0],[0.25,0],[0.5,0],[0.75,0],[1,0],[1,0.25],[1,0.5],[1,0.75],[1,1],[0.75,1],[0.5,1],[0.25,1],[0,1],[0,0.75],[0,0.5],[0,0.25]];outlineConnect=0;gradientColor=none;html=1;whiteSpace=wrap;fontSize=12;fontStyle=0;container=1;pointerEvents=0;collapsible=0;recursiveResize=0;shape=mxgraph.aws4.group;grIcon=mxgraph.aws4.group_security_group;grStroke=0;strokeColor=#00A4A6;fillColor=#E6F6F7;verticalAlign=top;align=left;spacingLeft=30;fontColor=#147EBA;dashed=0;" vertex="1" parent="7gcp-KZ2jk-KzHVOEvSe-19">
          <mxGeometry x="300" y="320" width="130" height="130" as="geometry" />
        </mxCell>
        <mxCell id="7gcp-KZ2jk-KzHVOEvSe-4" value="new webapp" style="" parent="0" />
        <mxCell id="7gcp-KZ2jk-KzHVOEvSe-5" value="CloudFront" style="sketch=0;points=[[0,0,0],[0.25,0,0],[0.5,0,0],[0.75,0,0],[1,0,0],[0,1,0],[0.25,1,0],[0.5,1,0],[0.75,1,0],[1,1,0],[0,0.25,0],[0,0.5,0],[0,0.75,0],[1,0.25,0],[1,0.5,0],[1,0.75,0]];outlineConnect=0;fontColor=#232F3E;fillColor=#8C4FFF;strokeColor=#ffffff;dashed=0;verticalLabelPosition=bottom;verticalAlign=top;align=center;html=1;fontSize=12;fontStyle=0;aspect=fixed;shape=mxgraph.aws4.resourceIcon;resIcon=mxgraph.aws4.cloudfront;" vertex="1" parent="7gcp-KZ2jk-KzHVOEvSe-4">
          <mxGeometry x="-140" y="-88" width="78" height="78" as="geometry" />
        </mxCell>
        <mxCell id="7gcp-KZ2jk-KzHVOEvSe-6" value="API Gateway" style="sketch=0;points=[[0,0,0],[0.25,0,0],[0.5,0,0],[0.75,0,0],[1,0,0],[0,1,0],[0.25,1,0],[0.5,1,0],[0.75,1,0],[1,1,0],[0,0.25,0],[0,0.5,0],[0,0.75,0],[1,0.25,0],[1,0.5,0],[1,0.75,0]];outlineConnect=0;fontColor=#232F3E;fillColor=#8C4FFF;strokeColor=#ffffff;dashed=0;verticalLabelPosition=bottom;verticalAlign=top;align=center;html=1;fontSize=12;fontStyle=0;aspect=fixed;shape=mxgraph.aws4.resourceIcon;resIcon=mxgraph.aws4.api_gateway;" vertex="1" parent="7gcp-KZ2jk-KzHVOEvSe-4">
          <mxGeometry x="-180" y="192" width="78" height="78" as="geometry" />
        </mxCell>
        <mxCell id="7gcp-KZ2jk-KzHVOEvSe-7" value="AWS WAF" style="sketch=0;points=[[0,0,0],[0.25,0,0],[0.5,0,0],[0.75,0,0],[1,0,0],[0,1,0],[0.25,1,0],[0.5,1,0],[0.75,1,0],[1,1,0],[0,0.25,0],[0,0.5,0],[0,0.75,0],[1,0.25,0],[1,0.5,0],[1,0.75,0]];outlineConnect=0;fontColor=#232F3E;fillColor=#DD344C;strokeColor=#ffffff;dashed=0;verticalLabelPosition=bottom;verticalAlign=top;align=center;html=1;fontSize=12;fontStyle=0;aspect=fixed;shape=mxgraph.aws4.resourceIcon;resIcon=mxgraph.aws4.waf;" vertex="1" parent="7gcp-KZ2jk-KzHVOEvSe-4">
          <mxGeometry x="-300" y="192" width="78" height="78" as="geometry" />
        </mxCell>
        <mxCell id="7gcp-KZ2jk-KzHVOEvSe-8" value="" style="sketch=0;points=[[0,0,0],[0.25,0,0],[0.5,0,0],[0.75,0,0],[1,0,0],[0,1,0],[0.25,1,0],[0.5,1,0],[0.75,1,0],[1,1,0],[0,0.25,0],[0,0.5,0],[0,0.75,0],[1,0.25,0],[1,0.5,0],[1,0.75,0]];outlineConnect=0;fontColor=#232F3E;fillColor=#8C4FFF;strokeColor=#ffffff;dashed=0;verticalLabelPosition=bottom;verticalAlign=top;align=center;html=1;fontSize=12;fontStyle=0;aspect=fixed;shape=mxgraph.aws4.resourceIcon;resIcon=mxgraph.aws4.route_53;" vertex="1" parent="7gcp-KZ2jk-KzHVOEvSe-4">
          <mxGeometry x="190" y="-10" width="78" height="78" as="geometry" />
        </mxCell>
        <mxCell id="7gcp-KZ2jk-KzHVOEvSe-21" value="AWS ALB" style="sketch=0;outlineConnect=0;fontColor=#232F3E;gradientColor=none;fillColor=#8C4FFF;strokeColor=none;dashed=0;verticalLabelPosition=bottom;verticalAlign=top;align=center;html=1;fontSize=12;fontStyle=0;aspect=fixed;pointerEvents=1;shape=mxgraph.aws4.application_load_balancer;container=1;" vertex="1" collapsed="1" parent="7gcp-KZ2jk-KzHVOEvSe-4">
          <mxGeometry x="-20" y="460" width="90" height="30" as="geometry">
            <mxRectangle x="170" y="450" width="78" height="78" as="alternateBounds" />
          </mxGeometry>
        </mxCell>
        <mxCell id="7gcp-KZ2jk-KzHVOEvSe-35" value="" style="sketch=0;outlineConnect=0;fontColor=#232F3E;gradientColor=none;fillColor=#ED7100;strokeColor=none;dashed=0;verticalLabelPosition=bottom;verticalAlign=top;align=center;html=1;fontSize=12;fontStyle=0;aspect=fixed;pointerEvents=1;shape=mxgraph.aws4.ecs_service;container=1;" vertex="1" collapsed="1" parent="7gcp-KZ2jk-KzHVOEvSe-21">
          <mxGeometry x="87.5" y="-9" width="25" height="20" as="geometry">
            <mxRectangle x="200" y="472" width="39" height="48" as="alternateBounds" />
          </mxGeometry>
        </mxCell>
        <mxCell id="7gcp-KZ2jk-KzHVOEvSe-37" value="" style="group" vertex="1" connectable="0" parent="7gcp-KZ2jk-KzHVOEvSe-4">
          <mxGeometry x="70" y="451" width="270" height="69" as="geometry" />
        </mxCell>
        <mxCell id="7gcp-KZ2jk-KzHVOEvSe-34" value="&lt;br&gt;&lt;font style=&quot;color: light-dark(rgb(237, 113, 0), rgb(132, 148, 170));&quot;&gt;AWS ECS Service&lt;/font&gt;" style="fillColor=none;strokeColor=light-dark(#ED7100,#8494AA);dashed=1;verticalAlign=top;fontStyle=0;fontColor=#5A6C86;whiteSpace=wrap;html=1;" vertex="1" parent="7gcp-KZ2jk-KzHVOEvSe-37">
          <mxGeometry x="-10" width="280" height="69" as="geometry" />
        </mxCell>
        <mxCell id="7gcp-KZ2jk-KzHVOEvSe-32" value="" style="sketch=0;outlineConnect=0;fontColor=#232F3E;gradientColor=none;fillColor=#ED7100;strokeColor=none;dashed=0;verticalLabelPosition=bottom;verticalAlign=top;align=center;html=1;fontSize=12;fontStyle=0;aspect=fixed;pointerEvents=1;shape=mxgraph.aws4.ecs_service;container=1;" vertex="1" collapsed="1" parent="7gcp-KZ2jk-KzHVOEvSe-37">
          <mxGeometry x="122.5" width="25" height="20" as="geometry">
            <mxRectangle x="200" y="472" width="39" height="48" as="alternateBounds" />
          </mxGeometry>
        </mxCell>
        <mxCell id="7gcp-KZ2jk-KzHVOEvSe-38" value="&lt;font style=&quot;font-size: 6px;&quot;&gt;ECS Task (Fargate)&lt;/font&gt;" style="sketch=0;outlineConnect=0;fontColor=#232F3E;gradientColor=none;fillColor=#ED7100;strokeColor=none;dashed=0;verticalLabelPosition=bottom;verticalAlign=top;align=center;html=1;fontSize=12;fontStyle=0;aspect=fixed;pointerEvents=1;shape=mxgraph.aws4.ecs_task;" vertex="1" parent="7gcp-KZ2jk-KzHVOEvSe-37">
          <mxGeometry x="4" y="9" width="31.6" height="41" as="geometry" />
        </mxCell>
        <mxCell id="7gcp-KZ2jk-KzHVOEvSe-40" value="&lt;font style=&quot;font-size: 6px;&quot;&gt;ECS Task (Fargate)&lt;/font&gt;" style="sketch=0;outlineConnect=0;fontColor=#232F3E;gradientColor=none;fillColor=#ED7100;strokeColor=none;dashed=0;verticalLabelPosition=bottom;verticalAlign=top;align=center;html=1;fontSize=12;fontStyle=0;aspect=fixed;pointerEvents=1;shape=mxgraph.aws4.ecs_task;" vertex="1" parent="7gcp-KZ2jk-KzHVOEvSe-37">
          <mxGeometry x="220" y="9" width="31.6" height="41" as="geometry" />
        </mxCell>
        <mxCell id="7gcp-KZ2jk-KzHVOEvSe-41" value="AWS RDS&lt;br&gt;Writer Instance" style="sketch=0;points=[[0,0,0],[0.25,0,0],[0.5,0,0],[0.75,0,0],[1,0,0],[0,1,0],[0.25,1,0],[0.5,1,0],[0.75,1,0],[1,1,0],[0,0.25,0],[0,0.5,0],[0,0.75,0],[1,0.25,0],[1,0.5,0],[1,0.75,0]];outlineConnect=0;fontColor=#232F3E;fillColor=#C925D1;strokeColor=#ffffff;dashed=0;verticalLabelPosition=bottom;verticalAlign=top;align=center;html=1;fontSize=12;fontStyle=0;aspect=fixed;shape=mxgraph.aws4.resourceIcon;resIcon=mxgraph.aws4.rds;" vertex="1" parent="7gcp-KZ2jk-KzHVOEvSe-4">
          <mxGeometry x="12" y="590" width="78" height="78" as="geometry" />
        </mxCell>
        <mxCell id="7gcp-KZ2jk-KzHVOEvSe-42" value="AWS RDS&lt;br&gt;Reader Instance" style="sketch=0;points=[[0,0,0],[0.25,0,0],[0.5,0,0],[0.75,0,0],[1,0,0],[0,1,0],[0.25,1,0],[0.5,1,0],[0.75,1,0],[1,1,0],[0,0.25,0],[0,0.5,0],[0,0.75,0],[1,0.25,0],[1,0.5,0],[1,0.75,0]];outlineConnect=0;fontColor=#232F3E;fillColor=#C925D1;strokeColor=#ffffff;dashed=0;verticalLabelPosition=bottom;verticalAlign=top;align=center;html=1;fontSize=12;fontStyle=0;aspect=fixed;shape=mxgraph.aws4.resourceIcon;resIcon=mxgraph.aws4.rds;" vertex="1" parent="7gcp-KZ2jk-KzHVOEvSe-4">
          <mxGeometry x="160" y="590" width="78" height="78" as="geometry" />
        </mxCell>
        <mxCell id="7gcp-KZ2jk-KzHVOEvSe-44" value="AWS RDS&lt;br&gt;Reader Instance" style="sketch=0;points=[[0,0,0],[0.25,0,0],[0.5,0,0],[0.75,0,0],[1,0,0],[0,1,0],[0.25,1,0],[0.5,1,0],[0.75,1,0],[1,1,0],[0,0.25,0],[0,0.5,0],[0,0.75,0],[1,0.25,0],[1,0.5,0],[1,0.75,0]];outlineConnect=0;fontColor=#232F3E;fillColor=#C925D1;strokeColor=#ffffff;dashed=0;verticalLabelPosition=bottom;verticalAlign=top;align=center;html=1;fontSize=12;fontStyle=0;aspect=fixed;shape=mxgraph.aws4.resourceIcon;resIcon=mxgraph.aws4.rds;" vertex="1" parent="7gcp-KZ2jk-KzHVOEvSe-4">
          <mxGeometry x="300" y="590" width="78" height="78" as="geometry" />
        </mxCell>
        <mxCell id="7gcp-KZ2jk-KzHVOEvSe-9" value="legacy background" style="locked=1;" parent="0" />
        <mxCell id="7gcp-KZ2jk-KzHVOEvSe-10" value="Legacy AWS Account" style="points=[[0,0],[0.25,0],[0.5,0],[0.75,0],[1,0],[1,0.25],[1,0.5],[1,0.75],[1,1],[0.75,1],[0.5,1],[0.25,1],[0,1],[0,0.75],[0,0.5],[0,0.25]];outlineConnect=0;gradientColor=none;html=1;whiteSpace=wrap;fontSize=12;fontStyle=0;container=1;pointerEvents=0;collapsible=0;recursiveResize=0;shape=mxgraph.aws4.group;grIcon=mxgraph.aws4.group_account;strokeColor=#CD2264;fillColor=none;verticalAlign=top;align=left;spacingLeft=30;fontColor=#CD2264;dashed=0;" vertex="1" parent="7gcp-KZ2jk-KzHVOEvSe-9">
          <mxGeometry x="540" y="100" width="290" height="310" as="geometry" />
        </mxCell>
        <mxCell id="7gcp-KZ2jk-KzHVOEvSe-13" value="VPC" style="points=[[0,0],[0.25,0],[0.5,0],[0.75,0],[1,0],[1,0.25],[1,0.5],[1,0.75],[1,1],[0.75,1],[0.5,1],[0.25,1],[0,1],[0,0.75],[0,0.5],[0,0.25]];outlineConnect=0;gradientColor=none;html=1;whiteSpace=wrap;fontSize=12;fontStyle=0;container=1;pointerEvents=0;collapsible=0;recursiveResize=0;shape=mxgraph.aws4.group;grIcon=mxgraph.aws4.group_vpc2;strokeColor=#8C4FFF;fillColor=none;verticalAlign=top;align=left;spacingLeft=30;fontColor=#AAB7B8;dashed=0;" vertex="1" parent="7gcp-KZ2jk-KzHVOEvSe-9">
          <mxGeometry x="610" y="170" width="130" height="130" as="geometry" />
        </mxCell>
        <mxCell id="7gcp-KZ2jk-KzHVOEvSe-11" value="legacy webapp" style="locked=1;" parent="0" />
        <mxCell id="7gcp-KZ2jk-KzHVOEvSe-14" value="" style="sketch=0;points=[[0,0,0],[0.25,0,0],[0.5,0,0],[0.75,0,0],[1,0,0],[0,1,0],[0.25,1,0],[0.5,1,0],[0.75,1,0],[1,1,0],[0,0.25,0],[0,0.5,0],[0,0.75,0],[1,0.25,0],[1,0.5,0],[1,0.75,0]];outlineConnect=0;fontColor=#232F3E;fillColor=#C925D1;strokeColor=#ffffff;dashed=0;verticalLabelPosition=bottom;verticalAlign=top;align=center;html=1;fontSize=12;fontStyle=0;aspect=fixed;shape=mxgraph.aws4.resourceIcon;resIcon=mxgraph.aws4.rds;" vertex="1" parent="7gcp-KZ2jk-KzHVOEvSe-11">
          <mxGeometry x="640" y="210" width="78" height="78" as="geometry" />
        </mxCell>
      </root>
    </mxGraphModel>
  </diagram>
</mxfile>
